<svg width="425" height="420" viewBox="0 0 425 420" fill="none" xmlns="http://www.w3.org/2000/svg">
<path d="M361.999 39.2918L322.217 138.208L214.59 122.47L243.662 106.032L244.967 105.294L244.229 103.989L195.398 17.5823L195.398 17.582C190.908 9.64135 185.544 5.04379 181.257 2.42924C181.076 2.31883 180.897 2.21199 180.72 2.10861L289.945 1.50019C300.061 1.97462 306.934 7.46313 311.083 14.7862L361.999 39.2918ZM361.999 39.2918L335.197 54.388L333.892 55.1229L333.155 53.8194L311.084 14.7873L361.999 39.2918ZM85.5017 40.2398L85.5499 40.1861L85.5927 40.128C98.3521 22.8086 115.214 17.9665 129.888 19.0642C137.247 19.6147 144.047 21.6571 149.477 24.3718C154.936 27.101 158.86 30.4319 160.661 33.4591L183.46 74.2424L158.502 115.465L70.8477 63.8031L84.125 41.7748L85.5017 40.2398ZM151.079 230.235L122.125 213.554L120.827 212.806L120.077 214.103L70.4251 300.031C65.8629 307.926 64.6232 314.879 64.545 319.898C64.5416 320.118 64.5404 320.334 64.5412 320.546L8.49339 226.9C3.7679 217.959 4.98925 209.219 9.20319 201.933L9.20328 201.932L31.6512 163.104L32.4029 161.804L31.1018 161.054L4.45764 145.692L109.963 129.629L151.079 230.235ZM418.481 174.784L418.506 174.86L418.538 174.932C427.365 194.542 423.284 211.575 415.11 223.789C411.01 229.915 405.882 234.821 400.842 238.207C395.775 241.611 390.938 243.386 387.416 243.466H345.903L314.57 188.812L398.796 140.099L417.846 172.849L418.481 174.784ZM404.35 276.663C404.541 276.557 404.729 276.45 404.911 276.344L351.716 371.657C346.343 380.204 338.17 383.5 329.738 383.5H284.842H283.342V385V415.728L216.671 332.486L283.342 246.642V280V281.5H284.842H384.181C393.313 281.5 399.961 279.101 404.35 276.663ZM145.808 383.088L145.731 383.071L145.652 383.063C124.235 380.891 111.488 368.839 104.97 355.657C101.701 349.046 100.004 342.155 99.585 336.102C99.1635 330.016 100.043 324.945 101.739 321.858C101.742 321.853 101.745 321.848 101.747 321.843L125.317 281.5H178.22V383.174L147.77 383.498L145.808 383.088Z" fill="black"/>
<path d="M361.999 39.2918L322.217 138.208L214.59 122.47L243.662 106.032L244.967 105.294L244.229 103.989L195.398 17.5823L195.398 17.582C190.908 9.64135 185.544 5.04379 181.257 2.42924C181.076 2.31883 180.897 2.21199 180.72 2.10861L289.945 1.50019C300.061 1.97462 306.934 7.46313 311.083 14.7862L361.999 39.2918ZM361.999 39.2918L335.197 54.388L333.892 55.1229L333.155 53.8194L311.084 14.7873L361.999 39.2918ZM85.5017 40.2398L85.5499 40.1861L85.5927 40.128C98.3521 22.8086 115.214 17.9665 129.888 19.0642C137.247 19.6147 144.047 21.6571 149.477 24.3718C154.936 27.101 158.86 30.4319 160.661 33.4591L183.46 74.2424L158.502 115.465L70.8477 63.8031L84.125 41.7748L85.5017 40.2398ZM151.079 230.235L122.125 213.554L120.827 212.806L120.077 214.103L70.4251 300.031C65.8629 307.926 64.6232 314.879 64.545 319.898C64.5416 320.118 64.5404 320.334 64.5412 320.546L8.49339 226.9C3.7679 217.959 4.98925 209.219 9.20319 201.933L9.20328 201.932L31.6512 163.104L32.4029 161.804L31.1018 161.054L4.45764 145.692L109.963 129.629L151.079 230.235ZM418.481 174.784L418.506 174.86L418.538 174.932C427.365 194.542 423.284 211.575 415.11 223.789C411.01 229.915 405.882 234.821 400.842 238.207C395.775 241.611 390.938 243.386 387.416 243.466H345.903L314.57 188.812L398.796 140.099L417.846 172.849L418.481 174.784ZM404.35 276.663C404.541 276.557 404.729 276.45 404.911 276.344L351.716 371.657C346.343 380.204 338.17 383.5 329.738 383.5H284.842H283.342V385V415.728L216.671 332.486L283.342 246.642V280V281.5H284.842H384.181C393.313 281.5 399.961 279.101 404.35 276.663ZM145.808 383.088L145.731 383.071L145.652 383.063C124.235 380.891 111.488 368.839 104.97 355.657C101.701 349.046 100.004 342.155 99.585 336.102C99.1635 330.016 100.043 324.945 101.739 321.858C101.742 321.853 101.745 321.848 101.747 321.843L125.317 281.5H178.22V383.174L147.77 383.498L145.808 383.088Z" stroke="#14F194" stroke-width="3"/>
<path d="M361.999 39.2918L322.217 138.208L214.59 122.47L243.662 106.032L244.967 105.294L244.229 103.989L195.398 17.5823L195.398 17.582C190.908 9.64135 185.544 5.04379 181.257 2.42924C181.076 2.31883 180.897 2.21199 180.72 2.10861L289.945 1.50019C300.061 1.97462 306.934 7.46313 311.083 14.7862L361.999 39.2918ZM361.999 39.2918L335.197 54.388L333.892 55.1229L333.155 53.8194L311.084 14.7873L361.999 39.2918ZM85.5017 40.2398L85.5499 40.1861L85.5927 40.128C98.3521 22.8086 115.214 17.9665 129.888 19.0642C137.247 19.6147 144.047 21.6571 149.477 24.3718C154.936 27.101 158.86 30.4319 160.661 33.4591L183.46 74.2424L158.502 115.465L70.8477 63.8031L84.125 41.7748L85.5017 40.2398ZM151.079 230.235L122.125 213.554L120.827 212.806L120.077 214.103L70.4251 300.031C65.8629 307.926 64.6232 314.879 64.545 319.898C64.5416 320.118 64.5404 320.334 64.5412 320.546L8.49339 226.9C3.7679 217.959 4.98925 209.219 9.20319 201.933L9.20328 201.932L31.6512 163.104L32.4029 161.804L31.1018 161.054L4.45764 145.692L109.963 129.629L151.079 230.235ZM418.481 174.784L418.506 174.86L418.538 174.932C427.365 194.542 423.284 211.575 415.11 223.789C411.01 229.915 405.882 234.821 400.842 238.207C395.775 241.611 390.938 243.386 387.416 243.466H345.903L314.57 188.812L398.796 140.099L417.846 172.849L418.481 174.784ZM404.35 276.663C404.541 276.557 404.729 276.45 404.911 276.344L351.716 371.657C346.343 380.204 338.17 383.5 329.738 383.5H284.842H283.342V385V415.728L216.671 332.486L283.342 246.642V280V281.5H284.842H384.181C393.313 281.5 399.961 279.101 404.35 276.663ZM145.808 383.088L145.731 383.071L145.652 383.063C124.235 380.891 111.488 368.839 104.97 355.657C101.701 349.046 100.004 342.155 99.585 336.102C99.1635 330.016 100.043 324.945 101.739 321.858C101.742 321.853 101.745 321.848 101.747 321.843L125.317 281.5H178.22V383.174L147.77 383.498L145.808 383.088Z" stroke="url(#paint0_linear_161_47)" stroke-width="3"/>
<defs>
<linearGradient id="paint0_linear_161_47" x1="212.5" y1="0" x2="212.5" y2="420" gradientUnits="userSpaceOnUse">
<stop stop-color="#D45BFF"/>
<stop offset="1" stop-color="#D45BFF" stop-opacity="0"/>
</linearGradient>
</defs>
</svg>
